<?xml version="1.0" standalone="no"?><!DOCTYPE svg PUBLIC "-//W3C//DTD SVG 1.1//EN" "http://www.w3.org/Graphics/SVG/1.1/DTD/svg11.dtd"><svg t="1512032213847" class="icon" style="" viewBox="0 0 1024 1024" version="1.1" xmlns="http://www.w3.org/2000/svg" p-id="17104" xmlns:xlink="http://www.w3.org/1999/xlink" width="200" height="200"><defs><style type="text/css"></style></defs><path d="M627.756522 672.278261l-244.869565 75.686956 71.234782-267.130434L667.826087 249.321739c-40.069565-26.713043-89.043478-40.069565-138.017391-40.069565-106.852174 0-195.895652 66.782609-244.869566 160.278261C178.086957 378.434783 89.043478 480.834783 89.043478 605.495652c0 133.565217 97.947826 240.417391 218.156522 240.417391h476.382609c102.4 0 182.53913-89.043478 182.53913-200.347826 0-93.495652-57.878261-169.182609-138.017391-191.443478l-200.347826 218.156522z m244.869565-347.269565l-267.130435 293.843478-111.304348-120.208696 267.130435-293.843478 111.304348 120.208696z m57.878261-66.782609l-35.617391 40.069565-106.852174-115.756522 35.617391-40.069565s17.808696-17.808696 31.165217 0c17.808696 17.808696 53.426087 57.878261 66.782609 75.686957 26.713043 22.26087 8.904348 40.069565 8.904348 40.069565zM578.782609 641.113043l-146.921739 44.52174 40.069565-160.278261 106.852174 115.756521z" fill="#1296db" p-id="17105"></path></svg>