<?xml version="1.0" standalone="no"?><!DOCTYPE svg PUBLIC "-//W3C//DTD SVG 1.1//EN" "http://www.w3.org/Graphics/SVG/1.1/DTD/svg11.dtd"><svg t="1551945437142" class="icon" style="" viewBox="0 0 1535 1024" version="1.1" xmlns="http://www.w3.org/2000/svg" p-id="682" xmlns:xlink="http://www.w3.org/1999/xlink" width="299.8046875" height="200"><defs><style type="text/css"></style></defs><path d="M1121.96084 319.975229h-48.881435L828.143784 63.149529c1.453232-4.756031 2.64224-9.776287 2.64224-15.060766 0-26.554509-21.534254-48.088763-48.088763-48.088763-26.554509 0-48.088763 21.534254-48.088763 48.088763 0 5.284479 1.189008 10.304735 2.64224 15.060766L283.842404 319.975229h-48.749323c-35.406012 0-64.074313 28.668301-64.074313 64.074313l-46.107083 575.744033c0 35.406012 28.668301 64.074313 64.074313 64.074313h895.719262c35.406012 0 64.074313-28.668301 64.074313-64.074313l37.519804-575.744033c-0.264224-35.141788-28.932525-64.074313-64.338537-64.074313zM756.935424 88.382918c7.530383 4.888143 16.381886 7.662495 26.026061 7.662495 9.644175 0 18.495678-2.774352 26.026061-7.662495L1019.177715 319.975229H337.876206l419.059218-231.592311zM1114.298345 417.077538l-38.840924 512.99084c-1.189008 16.513998-14.928654 29.328861-31.442652 29.328861l-815.527287 5.020256c-18.62779 0.132112-33.29222-15.589214-31.838989-34.217005L235.489417 417.341762c1.189008-16.513998 14.928654-29.328861 31.442653-29.32886l815.527286-5.020256c18.495678-0.132112 33.29222 15.589214 31.838989 34.084892z" p-id="683" fill="#ffffff"></path><path d="M653.359627 688.303445c-33.95278-5.416591-61.564185-0.132112-83.626887 15.589214-22.062702 15.98555-35.802348 40.822604-41.218939 74.775384-3.96336 24.308605-2.510128 45.182299 4.491807 62.885305 7.001935 17.703006 17.570894 31.442653 31.706877 41.483163 14.135982 9.776287 33.027996 16.778222 56.279706 20.477358 23.119597 3.831248 43.200619 2.64224 59.978841-3.567023 16.778222-6.077151 30.517869-16.249774 41.21894-30.517869 10.568959-14.268094 17.835118-33.556444 21.798477-57.86505 5.416591-33.556444 0.792672-60.903625-15.060766-82.569991-15.853438-21.402142-40.954716-35.009676-75.568056-40.690491z m26.554509 112.163075c-3.831248 23.119597-10.172623 38.840924-19.156238 46.503419-8.983615 7.662495-20.477358 10.568959-34.349116 8.323055-13.343311-2.113792-23.119597-8.455167-29.593085-18.892013-6.209263-10.304735-7.662495-26.158173-4.359695-47.163979 3.567024-21.27003 10.040511-35.802348 19.156238-43.729068 9.247839-7.926719 20.345246-10.701071 33.29222-8.719391 13.607535 2.245904 23.515933 8.455167 29.989421 18.62779 6.473487 10.568959 8.190943 25.497613 5.020255 45.050187zM390.06044 821.73655c-1.189008 12.814863-3.567024 21.666366-7.530383 26.818733-3.96336 5.152367-9.644175 7.398271-16.778222 6.605599-4.491808-0.528448-8.058831-1.717456-10.304735-3.831247-3.434912-3.170688-5.680815-7.001935-6.737711-11.625855-1.189008-4.756031-1.32112-11.625855-0.528448-20.873694l-62.753193 2.64224c-0.396336 16.249774 2.113792 30.121533 7.398271 41.8795 5.416591 11.625855 13.607535 20.873694 24.704941 27.743517 11.097407 6.737711 27.347181 11.361631 48.485099 13.211198 19.94891 1.849568 36.991356-0.924784 50.466778-8.455167 13.739646-7.530383 23.119597-17.30667 28.668301-29.328861 5.416591-12.022191 9.247839-30.121533 11.493743-54.033802l10.701071-113.616307-64.999097-6.077152-12.286415 128.941298zM798.022251 547.075732l-110.181395-7.001935c-2.64224-0.132112-5.152367 1.849568-5.28448 4.756031l-0.396336 5.152368c-0.132112 2.64224 1.849568 5.152367 4.756032 5.284479l110.181396 7.001936c2.64224 0.132112 5.152367-1.849568 5.284479-4.756032l0.396336-5.020255c0.132112-2.774352-1.98168-5.284479-4.756032-5.416592zM562.202357 647.084505C578.584243 653.557993 613.329696 613.395949 613.329696 613.395949l72.001032-172.802477c3.038576-7.662495-0.792672-16.64611-8.455167-19.552574l-37.25558-14.928654c-7.662495-3.038576-16.64611 0.792672-19.552574 8.455167l-72.001032 172.802477s-2.378016 53.109018 14.135982 59.714617zM794.58734 602.298542l-130.39453-8.058831c-2.64224-0.132112-5.152367 1.849568-5.284479 4.756031l-0.396336 5.152368c-0.132112 2.64224 1.849568 5.020255 4.756031 5.284479l130.39453 8.058831c2.64224 0.132112 5.020255-1.849568 5.284479-4.756031l0.396336-5.152367c0.132112-2.64224-1.849568-5.152367-4.756031-5.28448zM966.729257 794.653593c10.304735-2.64224 18.231454-6.605599 23.912269-12.022191 8.719391-8.323055 13.343311-18.495678 14.532319-30.914204 1.32112-14.66443-3.038576-27.743517-12.946975-38.5767-10.040511-11.097407-25.101277-17.30667-45.182299-19.156238l-121.278803-10.701071-18.62779 209.925945 111.898852 10.040511c4.888143 0.396336 14.66443 0.132112 29.328861-0.396336 11.097407-0.528448 19.552574-2.113792 25.233389-4.756031 9.247839-4.359696 16.778222-10.568959 22.59115-18.892014 5.812927-8.323055 9.247839-17.703006 10.172623-28.668301 1.32112-13.343311-1.32112-24.837053-7.926719-34.084892-6.473487-9.512063-17.042446-16.910334-31.706877-21.798478z m-79.399303-63.281641l28.668301 2.510128c9.776287 0.924784 16.64611 3.170688 20.213133 7.001935 3.831248 3.831248 5.284479 8.851503 4.756032 14.928654-0.528448 6.605599-3.038576 11.361631-7.398271 14.532319-4.095472 3.170688-11.361631 4.359696-21.534254 3.434911l-28.271965-2.510127 3.567024-39.89782z m54.430138 106.085924c-0.528448 6.605599-3.434912 11.625855-8.323055 15.192879-4.888143 3.434912-12.946975 4.756031-24.176494 3.831247l-33.027996-3.038575 3.831247-42.54006 33.027997 3.038576c11.361631 1.189008 19.156238 3.567024 23.119597 7.926719 4.227584 4.227584 6.209263 9.379951 5.548704 15.589214zM801.457163 491.852922l-90.232486-5.680815c-2.64224-0.132112-5.152367 1.849568-5.284479 4.756031l-0.396336 5.152368c-0.132112 2.64224 1.849568 5.152367 4.756031 5.284479l90.232486 5.680816c2.64224 0.132112 5.152367-1.849568 5.28448-4.756032l0.396336-5.152367c0.132112-2.64224-1.98168-5.152367-4.756032-5.28448z" p-id="684" fill="#ffffff"></path></svg>